<svg width="116" height="60" viewBox="0 0 116 60" fill="none" xmlns="http://www.w3.org/2000/svg">
<path d="M12.4 44.28C10.4533 44.28 8.69333 43.9467 7.12 43.28C5.57333 42.6133 4.34667 41.6533 3.44 40.4C2.53333 39.1467 2.06667 37.6667 2.04 35.96H8.04C8.12 37.1067 8.52 38.0133 9.24 38.68C9.98667 39.3467 11 39.68 12.28 39.68C13.5867 39.68 14.6133 39.3733 15.36 38.76C16.1067 38.12 16.48 37.2933 16.48 36.28C16.48 35.4533 16.2267 34.7733 15.72 34.24C15.2133 33.7067 14.5733 33.2933 13.8 33C13.0533 32.68 12.0133 32.3333 10.68 31.96C8.86667 31.4267 7.38667 30.9067 6.24 30.4C5.12 29.8667 4.14667 29.08 3.32 28.04C2.52 26.9733 2.12 25.56 2.12 23.8C2.12 22.1467 2.53333 20.7067 3.36 19.48C4.18667 18.2533 5.34667 17.32 6.84 16.68C8.33333 16.0133 10.04 15.68 11.96 15.68C14.84 15.68 17.1733 16.3867 18.96 17.8C20.7733 19.1867 21.7733 21.1333 21.96 23.64H15.8C15.7467 22.68 15.3333 21.8933 14.56 21.28C13.8133 20.64 12.8133 20.32 11.56 20.32C10.4667 20.32 9.58667 20.6 8.92 21.16C8.28 21.72 7.96 22.5333 7.96 23.6C7.96 24.3467 8.2 24.9733 8.68 25.48C9.18667 25.96 9.8 26.36 10.52 26.68C11.2667 26.9733 12.3067 27.32 13.64 27.72C15.4533 28.2533 16.9333 28.7867 18.08 29.32C19.2267 29.8533 20.2133 30.6533 21.04 31.72C21.8667 32.7867 22.28 34.1867 22.28 35.92C22.28 37.4133 21.8933 38.8 21.12 40.08C20.3467 41.36 19.2133 42.3867 17.72 43.16C16.2267 43.9067 14.4533 44.28 12.4 44.28ZM25.695 32.84C25.695 30.6 26.135 28.6133 27.015 26.88C27.9217 25.1467 29.135 23.8133 30.655 22.88C32.2017 21.9467 33.9217 21.48 35.815 21.48C37.4683 21.48 38.9083 21.8133 40.135 22.48C41.3883 23.1467 42.3883 23.9867 43.135 25V21.84H48.775V44H43.135V40.76C42.415 41.8 41.415 42.6667 40.135 43.36C38.8817 44.0267 37.4283 44.36 35.775 44.36C33.9083 44.36 32.2017 43.88 30.655 42.92C29.135 41.96 27.9217 40.6133 27.015 38.88C26.135 37.12 25.695 35.1067 25.695 32.84ZM43.135 32.92C43.135 31.56 42.8683 30.4 42.335 29.44C41.8017 28.4533 41.0817 27.7067 40.175 27.2C39.2683 26.6667 38.295 26.4 37.255 26.4C36.215 26.4 35.255 26.6533 34.375 27.16C33.495 27.6667 32.775 28.4133 32.215 29.4C31.6817 30.36 31.415 31.5067 31.415 32.84C31.415 34.1733 31.6817 35.3467 32.215 36.36C32.775 37.3467 33.495 38.1067 34.375 38.64C35.2817 39.1733 36.2417 39.44 37.255 39.44C38.295 39.44 39.2683 39.1867 40.175 38.68C41.0817 38.1467 41.8017 37.4 42.335 36.44C42.8683 35.4533 43.135 34.28 43.135 32.92ZM63.4844 38.84L69.0844 21.84H75.0444L66.8444 44H60.0444L51.8844 21.84H57.8844L63.4844 38.84Z" fill="#1B1B19"/>
<path d="M95.3097 38.68H84.1897L82.3497 44H76.4697L86.5097 16.04H93.0297L103.07 44H97.1497L95.3097 38.68ZM93.7897 34.2L89.7497 22.52L85.7097 34.2H93.7897ZM112.423 16.08V44H106.823V16.08H112.423Z" fill="#BFA6FA"/>
<path d="M12 17.5V10.5" stroke="#1B1B19" stroke-width="6"/>
<path d="M12 49V42" stroke="#1B1B19" stroke-width="6"/>
</svg>
