<svg width="170" height="268" viewBox="0 0 170 268" fill="none" xmlns="http://www.w3.org/2000/svg">
<path d="M32.8008 255.22C32.8188 255.255 32.8368 255.291 32.8547 255.327C32.9624 255.705 33.0701 256.082 33.1509 256.432H29.5427C28.9503 255.731 28.3849 255.004 27.981 254.465C25.773 251.555 23.0534 247.218 25.396 246.14C27.8463 245.009 30.4044 249.696 31.7776 252.768C32.4239 254.169 32.8008 255.22 32.8008 255.22Z" fill="#EBEBEB"/>
<path d="M36.1664 252.04C36.1664 253.576 36.0856 254.708 36.0856 254.708C36.1036 255.193 36.1036 255.633 36.0856 256.028C36.0856 256.172 36.0856 256.306 36.0856 256.432H33.366C33.366 256.432 33.366 256.423 33.366 256.405C33.2224 256.082 33.0519 255.722 32.8544 255.327C32.5313 254.169 32.1813 252.876 31.9928 252.04C31.2119 248.457 30.5387 243.392 33.0968 243.392C35.7894 243.365 36.1933 248.7 36.1664 252.04Z" fill="#EBEBEB"/>
<path d="M115.002 216.585C115.002 216.585 108.486 205.377 111.825 198.561C115.406 191.26 120.926 196.002 119.122 205.404C117.883 211.843 115.002 216.585 115.002 216.585Z" fill="#EBEBEB"/>
<path d="M125.988 256.189H127.254C124.75 251.717 122.542 247.083 120.737 242.261C117.964 234.932 116.321 227.254 115.675 219.441C115.298 214.726 115.298 209.957 115.46 205.216C115.487 204.515 114.383 204.407 114.356 205.108C114.06 213.379 114.356 221.677 115.998 229.787C117.614 237.815 120.495 245.521 124.184 252.795C124.776 253.944 125.378 255.076 125.988 256.189Z" fill="#E0E0E0"/>
<path d="M116.725 230.541C116.725 230.541 104.151 227.389 101.592 220.249C98.8729 212.598 106.089 211.951 111.582 219.791C115.325 225.153 116.725 230.541 116.725 230.541Z" fill="#EBEBEB"/>
<path d="M118.96 238.489C118.96 238.489 129.569 230.999 129.381 223.428C129.192 215.319 122.218 217.286 119.903 226.58C118.341 232.966 118.96 238.489 118.96 238.489Z" fill="#EBEBEB"/>
<path d="M124.238 250.936C124.238 250.936 134.847 243.473 134.658 235.902C134.47 227.766 127.496 229.76 125.18 239.055C123.619 245.413 124.238 250.936 124.238 250.936Z" fill="#EBEBEB"/>
<path d="M121.626 246.275C121.626 246.275 108.647 246.463 104.339 240.24C99.7347 233.531 106.547 231.053 113.871 237.222C118.88 241.452 121.626 246.275 121.626 246.275Z" fill="#EBEBEB"/>
<path d="M9.42822 33.1796C9.42822 33.1796 16.1329 25.7437 21.626 25.7437C27.1459 25.7437 26.6882 27.1985 30.2964 25.6898C33.9045 24.181 41.9287 15.9638 47.4486 17.3378C52.9417 18.7118 53.0224 26.6597 60.7773 27.6565C68.5052 28.6264 71.1441 30.9434 71.8711 33.1796H9.42822Z" fill="#EBEBEB"/>
<path d="M74.0791 58.2894L73.7829 59.1784L73.5136 60.0406C73.3162 60.5794 73.1187 61.1272 72.9213 61.684C72.5263 62.7797 72.1045 63.8753 71.6557 64.9709C71.2249 66.0486 70.7671 67.1263 70.2825 68.2039C69.8157 69.2996 69.3131 70.3862 68.7746 71.4639C68.254 72.5416 67.6975 73.6193 67.1051 74.6969C66.4858 75.7746 65.8396 76.8523 65.1125 77.9569C64.7356 78.5137 64.3406 79.0705 63.9278 79.6273C63.4969 80.193 63.0392 80.7588 62.5007 81.3246C61.9621 81.9173 61.3697 82.51 60.6158 83.1028C60.535 83.1836 60.4004 83.2644 60.3196 83.3452C60.2119 83.4171 60.1042 83.4889 59.9965 83.5608L59.6734 83.8032L59.4849 83.911L59.2964 84.0188L58.9194 84.2613L58.5694 84.4498C58.4347 84.5037 58.327 84.5576 58.2193 84.6115C58.1116 84.6654 57.977 84.7193 57.8693 84.7462C57.0346 85.1234 56.3075 85.3389 55.6074 85.5275C54.9343 85.7161 54.288 85.8778 53.6418 86.0125C52.3763 86.2819 51.1915 86.4705 50.0067 86.6321C47.6102 86.9554 45.3215 87.171 43.0058 87.3326C40.717 87.4943 38.4283 87.5751 36.1395 87.6559C35.0086 87.6829 33.8777 87.7098 32.7198 87.7098H31.0234L29.2732 87.6829C26.8498 87.6559 24.9111 85.6892 24.938 83.2644C24.9649 81.0282 26.6344 79.2231 28.7616 78.9537L28.8424 78.9268L32.1005 78.4957C33.1776 78.361 34.2816 78.2263 35.3586 78.0646C37.5307 77.7593 39.6848 77.436 41.821 77.0947C43.9751 76.7176 46.0754 76.3404 48.1218 75.9093C49.1181 75.6668 50.1144 75.4513 51.0299 75.1819C51.4607 75.0472 51.8916 74.9125 52.2685 74.7777C52.6455 74.643 52.9956 74.4814 53.1571 74.3736C53.2379 74.3467 53.2648 74.3197 53.211 74.3197C53.211 74.3018 53.22 74.2928 53.2379 74.2928C53.2379 74.2659 53.2379 74.2659 53.2648 74.2389C53.3725 74.1311 53.561 73.9425 53.7495 73.6731C53.9649 73.4037 54.1803 73.1074 54.3957 72.7571C54.6291 72.3979 54.8625 72.0207 55.0958 71.6256C55.5536 70.8442 56.0113 69.9821 56.4422 69.093C56.6576 68.644 56.873 68.186 57.0884 67.719C57.2859 67.252 57.4923 66.785 57.7077 66.318C58.1116 65.3751 58.5155 64.4051 58.8925 63.4083C59.2874 62.4384 59.6644 61.4505 60.0234 60.4447C60.4004 59.4568 60.7684 58.46 61.1274 57.4542C61.3069 56.9513 61.4774 56.4483 61.639 55.9454L61.8813 55.1911L62.1237 54.4906L62.1775 54.3828C63.2546 51.069 66.8089 49.2908 70.094 50.3954C73.379 51.4731 75.1831 55.0025 74.0791 58.2894Z" fill="#BFA6FA"/>
<path d="M33.7699 84.1265C33.6891 86.1741 33.1237 87.5481 33.0967 87.6559C33.016 87.8445 32.8005 87.9253 32.6121 87.8714C32.3966 87.7906 32.3159 87.5481 32.3966 87.3595C32.4236 87.3057 33.9853 83.3452 31.9927 78.9806C31.885 78.7921 31.9927 78.5765 32.1812 78.4957C32.3697 78.4149 32.5851 78.4957 32.6659 78.6843C33.5814 80.678 33.7968 82.5908 33.7699 84.1265Z" fill="white"/>
<path d="M36.5706 83.9379C36.4898 86.0125 35.9782 87.4673 35.9243 87.5751C35.8435 87.7637 35.6281 87.8445 35.4396 87.7906C35.2512 87.7098 35.1434 87.4943 35.2242 87.3057C35.2511 87.2518 36.786 83.0219 34.7934 78.6573C34.7126 78.4688 34.7934 78.2263 34.9819 78.1455C35.1704 78.0646 35.3858 78.1455 35.4666 78.334C36.409 80.3547 36.6244 82.3484 36.5706 83.9379Z" fill="white"/>
<path d="M56.2808 85.2581C56.2808 85.2581 57.9233 80.8396 62.3123 81.3785C62.3123 81.3785 60.9121 82.968 59.8889 83.6146C58.2733 84.6654 56.2808 85.2581 56.2808 85.2581Z" fill="#527676"/>
<path d="M56.1193 77.5258C56.1193 77.5976 56.1014 77.6695 56.0655 77.7413C55.9308 77.903 55.6885 77.9299 55.5269 77.7952C53.9921 76.6637 53.0497 74.9663 52.9958 74.8855C52.915 74.6969 52.9689 74.4814 53.1574 74.3736C53.3459 74.2658 53.5613 74.3467 53.669 74.5083C53.669 74.5353 54.5845 76.1518 55.9847 77.2025C56.0924 77.2833 56.1193 77.3911 56.1193 77.5258Z" fill="#527676"/>
<path d="M34.7394 127.233L33.8508 114.247L32.3429 111.984L27.173 112.335L26.0151 114.786L26.8768 127.745L34.7394 127.233ZM30.0541 114.436C29.6233 114.436 29.2733 114.113 29.2733 113.682C29.2733 113.251 29.6233 112.9 30.0541 112.9C30.458 112.9 30.8081 113.251 30.8081 113.682C30.8081 114.113 30.458 114.436 30.0541 114.436Z" fill="#1B1B19"/>
<path d="M28.7348 120.498C28.0347 120.498 27.4692 119.905 27.4692 119.151C27.4692 118.423 28.0347 117.831 28.7348 117.831C29.4349 117.831 30.0003 118.423 30.0003 119.151C30.0003 119.905 29.4349 120.498 28.7348 120.498ZM31.5352 117.912L32.693 117.938L29.381 122.68H28.2501L31.5352 117.912ZM29.031 119.151C29.031 118.693 28.8694 118.558 28.7348 118.558C28.5732 118.531 28.4117 118.693 28.4117 119.124C28.4117 119.582 28.5732 119.717 28.7079 119.744C28.8694 119.744 29.0041 119.609 29.031 119.151ZM32.2083 122.734C31.5082 122.734 30.9158 122.141 30.9158 121.414C30.9158 120.687 31.5082 120.094 32.2083 120.094C32.9084 120.094 33.4739 120.687 33.4739 121.414C33.4739 122.141 32.9084 122.734 32.2083 122.734ZM32.5045 121.414C32.5045 120.956 32.343 120.821 32.2083 120.821C32.0468 120.821 31.9121 120.956 31.8852 121.414C31.8852 121.872 32.0468 122.007 32.1814 122.007C32.343 122.007 32.5045 121.872 32.5045 121.414Z" fill="white"/>
<path d="M30.0002 113.278C30.1887 113.251 30.3502 113.116 30.3502 112.9C30.3502 112.712 30.2964 108.293 29.5693 106.569C29.4886 106.38 29.2732 106.3 29.0847 106.38C28.8962 106.461 28.8154 106.677 28.8962 106.865C29.5693 108.455 29.6232 112.873 29.6232 112.927C29.6232 113.116 29.7848 113.278 29.9732 113.278C29.9912 113.278 30.0002 113.278 30.0002 113.278Z" fill="black"/>
<path d="M20.603 79.8967L22.0301 86.7668L22.1378 87.2518L22.5148 89.0569L22.6225 89.5149L24.7228 99.6181L24.8305 100.103L25.746 104.414L25.8537 104.953L26.5 107.997L42.7906 104.575L43.2483 104.468L50.9493 102.851L51.4071 102.743L57.5733 101.45L58.031 101.369L63.4702 100.211L60.3736 85.5006L60.2659 84.9348L59.5928 81.6748L59.4581 81.0552L57.5733 72.1105L20.603 79.8967Z" fill="#71C587"/>
<path d="M57.5732 101.45L58.031 101.369C57.1693 99.3486 56.7385 97.1394 56.7923 94.9302C56.9001 91.4816 58.2195 88.1409 60.3736 85.5006L60.2659 84.9348C57.9233 87.6559 56.4962 91.1045 56.3346 94.7147C56.2269 97.0316 56.6846 99.3486 57.5732 101.45Z" fill="#559065"/>
<path d="M22.03 86.7668L22.1377 87.2518C25.5844 87.5482 29.031 88.1678 32.3429 89.1916C39.1015 91.2931 45.4293 95.0919 49.6298 100.884C50.0965 101.513 50.5364 102.169 50.9492 102.851L51.407 102.743C48.9567 98.7021 45.51 95.3074 41.4441 92.7749C35.628 89.1647 28.8425 87.3596 22.03 86.7668Z" fill="#559065"/>
<path d="M25.7461 104.414L25.8538 104.953C25.9795 104.809 26.1141 104.665 26.2577 104.521C27.1193 103.552 28.0618 102.662 29.1119 101.854C31.1045 100.345 33.4471 99.2678 35.9782 99.3217C38.5362 99.3756 40.7712 100.642 42.0367 102.878C42.3419 103.417 42.5932 103.983 42.7906 104.575L43.2484 104.468C43.0061 103.767 42.7099 103.067 42.306 102.42C39.8556 98.3787 34.7396 98.1093 30.8891 100.157C28.8965 101.208 27.254 102.77 25.7461 104.414Z" fill="#559065"/>
<path d="M27.6038 90.9159C29.3002 92.4246 29.1924 94.4991 28.0885 96.3042C27.2268 97.6783 26.069 98.7829 24.7226 99.6181L24.8303 100.103C26.6344 99.0523 28.1423 97.5166 28.977 95.6037C29.7848 93.7986 29.4079 91.8858 27.9 90.5656C26.419 89.2724 24.4264 89.003 22.5146 89.0569L22.6224 89.5149C24.3726 89.488 26.2305 89.7304 27.6038 90.9159Z" fill="#559065"/>
<path d="M31.3467 81.8904C33.07 84.0457 35.251 85.7969 37.7283 86.9554C42.1442 89.0569 47.2603 89.3533 51.8109 87.5482C54.8805 86.3358 57.5732 84.2613 59.5927 81.6748L59.458 81.0552C58.731 82.052 57.8963 82.968 56.9808 83.8032C53.4534 86.9824 48.7143 88.6528 43.9483 88.2217C39.2092 87.7906 34.7125 85.3928 31.7505 81.6479C31.5621 81.4054 31.1851 81.6748 31.3467 81.8904Z" fill="#559065"/>
<path d="M55.4997 76.9331C56.119 78.4418 54.9073 79.9236 53.8572 80.8935C52.6186 82.052 51.1107 82.968 49.4143 83.2913C46.5332 83.911 43.275 82.51 42.2249 79.6273C42.1172 79.3578 42.548 79.1962 42.6557 79.4656C43.5982 82.052 46.4793 83.3452 49.0912 82.8872C50.5183 82.6447 51.8646 81.9712 52.9956 81.0552C54.0726 80.1661 55.6882 78.6304 55.0689 77.0678C54.9612 76.7984 55.392 76.6367 55.4997 76.9331Z" fill="#559065"/>
<path d="M25.8805 104.495C25.8805 104.495 22.757 103.902 22.8917 101.989C23.0532 100.103 26.8499 97.6783 28.2501 96.9239C29.6233 96.1695 28.1962 99.5642 26.9845 100.669C26.2575 101.342 25.4497 102.636 25.4497 102.636L25.8805 104.495Z" fill="#E8A36F"/>
<path d="M24.992 98.8907C24.992 98.8907 21.7609 98.1902 21.9493 95.9271C22.1378 93.6909 26.6346 90.8081 28.2771 89.919C29.9466 89.03 28.331 93.1251 26.7961 94.3644C25.2613 95.6038 25.3152 96.6545 25.3152 96.6545L24.992 98.8907Z" fill="#E8A36F"/>
<path d="M24.3997 96.0348C24.3997 96.0348 21.5455 95.3882 21.707 93.3945C21.8686 91.4008 25.8537 88.8952 27.3078 88.087C28.7618 87.3057 27.3347 90.9428 25.9884 92.0205C24.642 93.0981 24.669 94.0411 24.669 94.0411L24.3997 96.0348Z" fill="#E8A36F"/>
<path d="M25.0189 102.555C25.0189 102.555 21.7877 101.854 21.9762 99.5911C22.1647 97.355 26.6614 94.4722 28.304 93.5831C29.9465 92.694 28.3309 96.7892 26.823 98.0285C25.2882 99.2678 25.342 100.319 25.342 100.319L25.0189 102.555Z" fill="#E8A36F"/>
<path d="M20.0644 83.426L59.485 75.128L58.5156 70.4401L19.0681 78.7382L20.0644 83.426Z" fill="#71C587"/>
<path d="M21.8147 85.7431L58.8118 77.9569L58.2733 75.3974L21.2761 83.1566L21.8147 85.7431Z" fill="#559065"/>
<path d="M43.3829 104.468L46.6141 103.794L40.421 74.2658L37.1628 74.9394L43.3829 104.468Z" fill="white"/>
<path d="M41.9019 81.3246L38.6438 82.0251L43.3829 104.468L46.6141 103.794L41.9019 81.3246Z" fill="white"/>
<path d="M41.3904 78.9268L38.1592 79.6003L38.6977 82.1867L41.9289 81.5132L41.3904 78.9268Z" fill="#EBEBEB"/>
<path d="M85.2808 15.6674C85.2808 15.6674 86.0616 6.99217 91.5547 7.01911C97.0477 7.04606 95.7552 13.3774 95.7552 13.3774C95.7552 13.3774 98.9864 11.6531 98.0171 15.6944C97.0477 19.7356 89.3467 18.9543 89.3467 18.9543L85.2808 15.6674Z" fill="#1B1B19"/>
<path d="M85.6846 13.7276C85.6846 13.7276 90.2621 15.0478 91.6623 19.0621C91.6623 19.0621 90.9891 19.8703 89.4273 20.0589C89.4273 20.0589 88.808 17.3917 85.2807 15.6674C85.2807 15.6674 84.8229 14.4012 85.6846 13.7276Z" fill="#131E07"/>
<path d="M69.1516 30.4854C69.1516 30.4854 66.5397 29.6772 66.1359 25.8245C65.4627 19.547 67.8861 13.8893 75.641 13.5121C85.7923 13.0002 89.1043 16.5296 90.7468 20.5978C92.3893 24.639 93.0086 31.3476 90.1813 33.6376C87.3271 35.9277 82.8842 37.3556 82.8842 37.3556L69.1516 30.4854Z" fill="#1B1B19"/>
<path d="M69.0169 29.0036C69.0169 29.0036 67.7514 29.0844 67.4552 30.7009C67.1859 32.3175 67.9129 35.0116 69.5554 34.7422C71.198 34.4459 69.0169 29.0036 69.0169 29.0036Z" fill="#1B1B19"/>
<path d="M68.9902 36.7359C68.1824 36.7359 67.5361 36.0893 67.5361 35.2811C67.5361 34.4459 68.1824 33.7993 68.9902 33.7993C69.798 33.7993 70.4711 34.4459 70.4711 35.2811C70.4711 36.0893 69.798 36.7359 68.9902 36.7359Z" fill="white"/>
<path d="M86.4117 46.4619C86.4117 46.4619 84.096 50.584 79.3569 51.1498C73.3523 51.8503 72.7061 49.2639 72.7061 49.2639C73.0022 48.4556 73.1638 47.6473 73.2446 46.7852C73.2805 46.4619 73.3074 46.1206 73.3254 45.7614C73.3523 44.8185 73.3254 43.7677 73.2446 42.5823C73.2087 42.2949 73.1818 41.9985 73.1638 41.6932V41.6663C77.3374 40.7772 80.784 39.026 83.1805 36.0085L83.7998 35.6582L84.2306 35.4158L84.3114 35.6582L84.2037 36.4396C83.746 40.0498 84.473 43.0672 86.4117 46.4619Z" fill="#E8A36F"/>
<path d="M80.2186 39.1337C79.3031 41.1005 77.1759 44.549 73.3254 45.7614C73.3523 44.8184 73.3254 43.7677 73.2446 42.5823C73.2087 42.2949 73.1818 41.9985 73.1638 41.6932C73.2356 41.7112 73.3164 41.7201 73.4061 41.7201C75.668 41.9357 78.1452 40.8311 80.2186 39.1337Z" fill="#B05935"/>
<path d="M89.4273 29.5425C89.535 31.8056 87.7309 34.6345 84.769 34.8231V34.85H84.6882C84.6523 34.9757 84.6074 35.1014 84.5536 35.2272C84.5356 35.2811 84.5087 35.3439 84.4728 35.4158C82.7764 39.3223 77.418 41.801 74.4561 41.9896C73.4059 42.0435 72.6789 41.8549 72.4635 41.801C69.3131 41.2352 68.5591 37.0323 68.9361 33.7723C68.99 33.3053 69.0618 32.8653 69.1515 32.4522C69.1515 32.4162 69.1605 32.3893 69.1785 32.3713C69.1785 32.3713 67.9398 27.8721 67.6167 25.9053C66.9974 22.1065 69.0438 18.1461 77.3911 17.0415C85.7653 15.9638 87.9732 21.0827 88.6733 23.8308C88.781 24.2888 88.781 27.0369 88.3502 27.4949C89.158 27.8721 89.4003 28.7881 89.4273 29.5425Z" fill="#E8A36F"/>
<path d="M78.1183 22.4298C78.1183 22.4298 77.9029 24.8007 79.9763 26.0939C81.161 26.8213 82.0765 27.5218 81.6188 28.842C80.9725 30.5932 81.4303 31.7517 82.4535 31.8056C84.2845 31.9403 84.5538 27.8182 88.3504 27.4949C88.3504 27.4949 89.7237 27.1446 89.4813 24.7468C89.2659 22.349 84.9308 15.6944 78.6838 16.2871C72.4368 16.9068 66.9976 20.1937 66.9438 24.5852C66.863 29.0036 67.7785 28.1145 67.7785 28.1145C67.7785 28.1145 67.7246 27.8451 68.1824 24.2888C68.6132 21.1097 78.6838 20.3553 78.1183 22.4298Z" fill="#1B1B19"/>
<path d="M86.2502 36.3857C85.4424 36.3857 84.7961 35.7391 84.7961 34.9308C84.7961 34.1226 85.4424 33.449 86.2502 33.449C87.058 33.449 87.7042 34.1226 87.7042 34.9308C87.7042 35.7391 87.058 36.3857 86.2502 36.3857Z" fill="white"/>
<path d="M70.6057 33.0718C70.6327 33.3951 69.9056 33.6915 68.9363 33.7723C68.9901 33.3053 69.0619 32.8653 69.1517 32.4522C69.9864 32.5061 70.6057 32.7755 70.6057 33.0718Z" fill="#B05935"/>
<path d="M73.7021 37.6519C74.0791 37.598 74.2945 37.3286 74.3215 37.3286C74.3753 37.2478 74.3753 37.14 74.2945 37.0592C74.2138 37.0053 74.106 37.0053 74.0522 37.0861C74.0253 37.1131 73.7291 37.4364 73.2444 37.2478C73.1636 37.2209 73.0559 37.2747 73.029 37.3556C73.0021 37.4633 73.0559 37.5711 73.1367 37.598C73.3521 37.6519 73.5406 37.6789 73.7021 37.6519Z" fill="#B05935"/>
<path d="M73.3791 36.4665C73.3791 36.4665 73.3881 36.4665 73.406 36.4665C74.6716 36.251 75.1024 35.2272 75.1024 35.2002C75.1832 35.0655 75.1024 34.9039 74.9678 34.85C74.8332 34.7692 74.6716 34.85 74.6177 34.9847C74.5908 35.0116 74.2677 35.766 73.3253 35.9277C73.3073 35.9277 73.2983 35.9277 73.2983 35.9277C72.329 36.0624 71.8443 35.5774 71.8443 35.5774C71.7366 35.4697 71.575 35.4697 71.4673 35.5505C71.3596 35.6582 71.3596 35.8468 71.4404 35.9546C71.4942 35.9815 72.1405 36.6551 73.3791 36.4665Z" fill="#B05935"/>
<path d="M72.6252 34.0417C72.5713 34.0597 72.5265 34.0507 72.4906 34.0148L71.3058 33.3951C71.225 33.3413 71.1711 33.2604 71.1711 33.1796C71.1711 33.0988 71.225 33.018 71.3058 32.9641C72.1674 32.3983 72.706 31.5362 72.9214 30.2968C72.9483 30.1621 73.0829 30.0813 73.2176 30.0813C73.3522 30.1082 73.433 30.2429 73.406 30.3777C73.1906 31.617 72.706 32.5061 71.9251 33.1527L72.7329 33.5837C72.8406 33.6376 72.8944 33.7993 72.8406 33.934C72.7867 33.9879 72.706 34.0417 72.6252 34.0417Z" fill="#B05935"/>
<path d="M74.8332 26.6327C74.16 26.7674 73.7831 25.8784 74.3755 25.5012C74.6716 25.3126 75.0755 25.2048 75.6141 25.2587C77.9298 25.582 78.8991 27.5488 78.8991 27.5488C78.8991 27.5488 76.7181 26.5519 75.5333 26.5789C75.2371 26.5789 75.0217 26.6058 74.8332 26.6327Z" fill="#1B1B19"/>
<path d="M71.2251 27.0369C71.9252 27.0638 72.1406 26.1208 71.5213 25.8514C71.1982 25.6898 70.7673 25.6359 70.2557 25.7975C68.0208 26.4442 67.9939 28.0876 67.9939 28.0876C67.9939 28.0876 69.3402 27.2524 70.525 27.0638C70.8212 27.0369 71.0366 27.0099 71.2251 27.0369Z" fill="#1B1B19"/>
<path d="M77.9566 33.5568C76.7718 33.5568 75.8293 33.2604 75.8293 32.8832C75.8293 32.4791 76.7718 32.1828 77.9566 32.1828C79.1144 32.1828 80.0838 32.4791 80.0838 32.8832C80.0838 33.2604 79.1144 33.5568 77.9566 33.5568Z" fill="#B05935"/>
<path d="M84.7691 34.823V34.85H84.6883C84.6524 34.9757 84.6075 35.1014 84.5537 35.2272C84.5357 35.299 84.5088 35.3619 84.4729 35.4158C84.1228 35.3888 83.7189 35.281 83.315 35.0116C83.0727 34.8769 82.8573 34.6614 82.6957 34.392C82.588 34.2573 82.6419 34.0687 82.7765 33.9609C82.9111 33.8801 83.0996 33.907 83.2073 34.0417C83.3958 34.365 83.6651 34.5536 83.9613 34.6614C84.1228 34.7422 84.3113 34.7961 84.4998 34.7961C84.6075 34.8141 84.6973 34.823 84.7691 34.823Z" fill="#B05935"/>
<path d="M84.4191 33.0988C84.5537 33.0718 84.6345 32.9641 84.6615 32.8294C84.9846 30.701 87.4887 29.6772 87.5157 29.6772C87.6772 29.5963 87.758 29.4347 87.6772 29.273C87.6234 29.1114 87.4349 29.0306 87.3003 29.1114C87.1656 29.1383 84.446 30.2429 84.0691 32.7485C84.0421 32.9102 84.1498 33.0718 84.3114 33.0988C84.3473 33.0988 84.3832 33.0988 84.4191 33.0988Z" fill="#B05935"/>
<path d="M87.0308 31.8056C87.0667 31.7876 87.1026 31.7696 87.1385 31.7517C87.2732 31.6709 87.3001 31.4823 87.2193 31.3206C87.1924 31.2937 86.5731 30.4046 85.3345 30.4854C85.1729 30.5124 85.0652 30.6471 85.0652 30.8087C85.0921 30.9973 85.2267 31.1051 85.3883 31.1051C86.2769 31.0242 86.7077 31.6709 86.7077 31.6709C86.7885 31.7786 86.9231 31.8325 87.0308 31.8056Z" fill="#B05935"/>
<path d="M76.341 30.8087C76.0448 30.8087 75.8025 30.3507 75.8025 29.7849C75.8025 29.1922 76.0448 28.7342 76.341 28.7342C76.6372 28.7342 76.8796 29.1922 76.8796 29.7849C76.8796 30.3507 76.6372 30.8087 76.341 30.8087Z" fill="#1A102B"/>
<path d="M77.3643 29.1922C77.4002 29.1742 77.4271 29.1563 77.445 29.1383C77.472 29.0575 77.445 28.9497 77.3643 28.9228C77.3104 28.8958 75.8025 28.1954 74.7254 29.2461C74.6716 29.3 74.6716 29.4077 74.7254 29.4616C74.8062 29.5155 74.887 29.5155 74.9409 29.4616C75.8564 28.5725 77.2296 29.1922 77.2296 29.1922C77.2835 29.2102 77.3284 29.2102 77.3643 29.1922Z" fill="#1A102B"/>
<path d="M71.0903 31.1859C70.7941 31.1859 70.5518 30.7279 70.5518 30.1352C70.5518 29.5694 70.7941 29.1114 71.0903 29.1114C71.3865 29.1114 71.6288 29.5694 71.6288 30.1352C71.6288 30.7279 71.3865 31.1859 71.0903 31.1859Z" fill="#1A102B"/>
<path d="M71.979 29.5155C71.997 29.4976 72.0149 29.4706 72.0329 29.4347C72.0598 29.3539 72.0329 29.273 71.9521 29.2461C71.8713 29.2192 70.3365 28.5995 69.3402 29.6772C69.2863 29.7311 69.2863 29.8388 69.3402 29.8927C69.394 29.9466 69.5018 29.9466 69.5556 29.8927C70.4173 28.9497 71.8174 29.5155 71.8174 29.5155C71.8713 29.5335 71.9251 29.5335 71.979 29.5155Z" fill="#1A102B"/>
<path d="M77.2834 32.9641C76.0986 33.0718 75.1562 32.7755 74.4292 32.1019C73.1098 30.8357 73.1636 28.7611 73.1636 28.6803C73.1636 28.5456 73.2713 28.4378 73.379 28.4109L80.9185 27.8451C80.9903 27.8451 81.0531 27.8631 81.107 27.899C81.1608 27.9529 81.1878 28.0158 81.1878 28.0876C81.1878 28.1415 81.2685 32.6677 77.2834 32.9641ZM73.6752 28.9228C73.7022 29.4616 73.8637 30.8626 74.7792 31.7247C75.3985 32.2905 76.2063 32.533 77.2565 32.4522C80.2723 32.2366 80.6223 29.3 80.6762 28.384L73.6752 28.9228Z" fill="white"/>
<path d="M73.4328 29.1383C73.3969 29.1383 73.361 29.1293 73.3251 29.1114C72.9212 28.9767 72.4635 29.1922 72.4635 29.1922C72.3288 29.2461 72.1942 29.1922 72.1134 29.0575C72.0596 28.9497 72.1134 28.7881 72.248 28.7342C72.275 28.7073 72.8943 28.4109 73.5136 28.6264C73.6482 28.6803 73.7021 28.842 73.6482 28.9767C73.6213 29.0575 73.5405 29.1114 73.4328 29.1383Z" fill="white"/>
<path d="M69.2054 33.6107C68.236 33.6646 67.4282 33.4221 66.8089 32.8294C65.4895 31.59 65.4895 29.3539 65.4895 29.273C65.4895 29.1383 65.5972 29.0306 65.7318 29.0036L72.3289 28.4917C72.4007 28.4917 72.4635 28.5187 72.5173 28.5726C72.5712 28.6264 72.5981 28.6893 72.5981 28.7611C72.5981 28.7881 72.7328 33.3143 69.2054 33.6107ZM66.028 29.5155C66.055 30.0813 66.2165 31.59 67.1589 32.4522C67.6706 32.9371 68.3437 33.1527 69.1515 33.0988C71.7903 32.8832 72.0596 29.9466 72.0865 29.0306L66.028 29.5155Z" fill="white"/>
<path d="M65.8126 30.0274L68.4783 29.758C68.5142 29.9196 68.5591 30.0813 68.6129 30.2429C68.595 30.2609 68.586 30.2699 68.586 30.2699L65.8664 30.5393C65.7318 30.5393 65.5972 30.4585 65.5972 30.2968C65.5702 30.1621 65.6779 30.0543 65.8126 30.0274Z" fill="white"/>
<path d="M87.1656 27.8721L80.9455 28.357C80.8109 28.357 80.6763 28.2492 80.6763 28.1145C80.6763 27.9798 80.784 27.8451 80.9186 27.8451L87.1387 27.3602C87.2733 27.3602 87.4079 27.4679 87.4079 27.6026C87.4079 27.7374 87.3002 27.8721 87.1656 27.8721Z" fill="white"/>
<path d="M91.1507 233.627L91.2315 243.864L84.1498 245.104L81.9688 233.842L91.1507 233.627Z" fill="#E8A36F"/>
<path d="M81.511 254.264C81.511 254.336 81.511 254.408 81.511 254.48C81.5289 254.767 81.5379 255.036 81.5379 255.288C81.5648 255.8 81.5918 256.096 81.5918 256.096L98.5825 256.285C98.5825 256.285 98.6902 255.638 98.6363 254.668C98.5286 252.917 97.9901 250.169 95.6744 248.337C92.4701 245.804 93.7087 246.343 93.0625 245.212C92.9817 245.077 92.4432 243.137 92.3893 243.002C91.8239 241.817 91.3392 241.278 88.2965 241.224C84.2575 241.197 83.8805 243.137 83.4228 244.161C83.2612 244.592 82.9919 245.508 82.7496 246.559C82.6419 246.99 82.5342 247.448 82.4265 247.906C82.1572 249.091 81.9149 250.304 81.7533 251.273C81.5648 252.324 81.511 253.402 81.511 254.264Z" fill="#131E07"/>
<path d="M81.511 254.264C81.511 254.336 81.511 254.408 81.511 254.48C81.5289 254.767 81.5379 255.036 81.5379 255.288C82.3816 254.713 82.983 253.95 83.342 252.998C84.4191 250.142 82.8304 246.693 82.7765 246.559H82.7496C82.6419 246.99 82.5342 247.448 82.4265 247.906C82.7765 249.091 83.2074 251.058 82.5881 252.728C82.3547 253.321 81.9957 253.833 81.511 254.264Z" fill="#605E4B"/>
<path d="M81.511 254.48C81.5379 255.423 81.5918 256.096 81.5918 256.096L98.5825 256.285C98.5825 256.285 98.6902 255.638 98.6363 254.668L81.511 254.48Z" fill="#605E4B"/>
<path d="M87.6771 246.532C87.713 246.532 87.7489 246.523 87.7848 246.505C89.9659 245.966 91.7161 246.478 91.743 246.478C91.9854 246.559 92.2546 246.397 92.3354 246.155C92.4162 245.885 92.2546 245.616 92.0123 245.535C91.9315 245.508 89.9659 244.969 87.5694 245.562C87.3001 245.643 87.1386 245.912 87.2194 246.155C87.2732 246.37 87.4617 246.532 87.6771 246.532Z" fill="white"/>
<path d="M87.3271 244.807C87.363 244.807 87.3989 244.798 87.4348 244.78C89.6159 244.242 91.3661 244.754 91.3661 244.754C91.6353 244.834 91.9046 244.673 91.9854 244.43C92.0392 244.161 91.9046 243.891 91.6353 243.811C91.5546 243.784 89.6158 243.245 87.1925 243.838C86.9501 243.918 86.7886 244.161 86.8424 244.43C86.8963 244.646 87.1117 244.807 87.3271 244.807Z" fill="white"/>
<path d="M88.3772 248.067C88.4131 248.067 88.458 248.067 88.5118 248.067C90.6659 247.529 92.4162 248.014 92.4431 248.014C92.7124 248.094 92.9816 247.933 93.0355 247.69C93.1163 247.421 92.9816 247.151 92.7124 247.097C92.6316 247.071 90.6929 246.505 88.2695 247.124C88.0002 247.178 87.8656 247.448 87.9194 247.69C87.9733 247.933 88.1618 248.067 88.3772 248.067Z" fill="white"/>
<path d="M89.2119 249.819C89.2478 249.819 89.2927 249.819 89.3465 249.819C91.5007 249.28 93.2509 249.765 93.2778 249.765C93.5471 249.846 93.8163 249.711 93.8702 249.441C93.951 249.172 93.7894 248.93 93.5471 248.849C93.4663 248.822 91.5276 248.283 89.1042 248.876C88.8349 248.93 88.7003 249.199 88.7541 249.468C88.808 249.684 88.9965 249.819 89.2119 249.819Z" fill="white"/>
<path d="M67.0245 234.462L67.1053 244.7L59.3774 244.754L58.3003 234.677L67.0245 234.462Z" fill="#E8A36F"/>
<path d="M41.067 255.961L68.7207 256.042C68.9092 255.665 69.0169 255.126 69.0707 254.506C69.2592 252.163 68.5053 248.418 68.1552 246.074C68.1193 245.804 68.0834 245.553 68.0475 245.319C67.9937 244.915 67.9667 244.592 67.9667 244.349C67.9667 242.437 66.2704 242.76 66.2704 242.76C63.47 245.481 60.3196 241.359 58.4616 242.706C58.4616 242.706 57.6538 243.272 55.4728 245.239C53.2648 247.205 49.522 248.498 46.3447 249.846C42.2518 251.543 41.067 253.24 40.8516 254.426C40.6631 255.369 41.067 255.961 41.067 255.961Z" fill="#131E07"/>
<path d="M41.067 255.961L68.7207 256.042C68.9092 255.665 69.0169 255.126 69.0707 254.506L40.8516 254.426C40.6631 255.369 41.067 255.961 41.067 255.961Z" fill="#605E4B"/>
<path d="M65.8934 256.015L66.7012 256.042C65.8934 255.099 65.1395 253.644 65.2472 251.597C65.3818 248.876 67.0244 247.017 68.1553 246.074C68.1194 245.804 68.0835 245.553 68.0476 245.319C66.8089 246.235 64.7356 248.283 64.574 251.57C64.4663 253.537 65.1126 254.991 65.8934 256.015Z" fill="#605E4B"/>
<path d="M55.9307 246.882C56.1461 246.882 56.3077 246.747 56.3615 246.532C56.4423 246.289 56.2807 246.047 56.0384 245.993L54.3151 245.562C54.0728 245.481 53.8304 245.643 53.7496 245.885C53.6958 246.128 53.8573 246.37 54.0997 246.424L55.823 246.855C55.8589 246.873 55.8948 246.882 55.9307 246.882Z" fill="white"/>
<path d="M57.8424 245.4C58.0578 245.4 58.2194 245.265 58.2732 245.05C58.354 244.807 58.1924 244.565 57.9501 244.484L56.2268 244.053C55.9844 243.999 55.7421 244.161 55.6882 244.403C55.6075 244.646 55.769 244.888 56.0114 244.942L57.7347 245.373C57.7706 245.391 57.8065 245.4 57.8424 245.4Z" fill="white"/>
<path d="M54.2074 247.879C54.3959 247.879 54.5844 247.744 54.6382 247.529C54.6921 247.286 54.5575 247.044 54.3151 246.99L52.5918 246.559C52.3495 246.478 52.1071 246.639 52.0264 246.882C51.9725 247.124 52.1071 247.367 52.3764 247.421L54.0997 247.879C54.1356 247.879 54.1715 247.879 54.2074 247.879Z" fill="white"/>
<path d="M52.4841 248.849C52.6726 248.849 52.8611 248.714 52.9149 248.498C52.9688 248.256 52.8341 248.013 52.5918 247.933L50.8685 247.502C50.6262 247.448 50.3569 247.609 50.303 247.852C50.2492 248.094 50.3838 248.337 50.6262 248.391L52.3495 248.822C52.3854 248.84 52.4303 248.849 52.4841 248.849Z" fill="white"/>
<path d="M50.5991 249.738C50.7876 249.738 50.9761 249.603 51.0299 249.388C51.0838 249.145 50.9491 248.903 50.7068 248.822L48.9835 248.391C48.7412 248.337 48.4719 248.471 48.418 248.741C48.3642 248.983 48.4988 249.226 48.7412 249.28L50.4645 249.711C50.5004 249.729 50.5452 249.738 50.5991 249.738Z" fill="white"/>
<path d="M48.5529 250.492C48.7414 250.492 48.9299 250.357 48.9838 250.142C49.0376 249.899 48.903 249.657 48.6607 249.576L46.9373 249.145C46.695 249.091 46.4257 249.253 46.3719 249.495C46.318 249.738 46.4527 249.98 46.695 250.034L48.4452 250.465C48.4811 250.483 48.517 250.492 48.5529 250.492Z" fill="white"/>
<path d="M67.9668 172.711C67.9668 172.711 70.7133 181.467 69.2862 197.013C68.236 208.678 68.1283 224.844 68.1283 232.199C68.1283 232.414 68.1283 232.621 68.1283 232.818C68.1283 233.384 68.1283 234.112 68.1283 234.893C68.1283 235.108 68.1283 235.324 68.1283 235.539C68.1283 237.533 68.1283 239.608 68.1283 239.608L57.1961 240.685C57.1961 240.685 57.0076 238.934 56.8191 237.075C56.7832 236.86 56.7563 236.653 56.7384 236.455C56.6576 235.701 56.5768 235.001 56.496 234.408C56.4781 234.21 56.4512 234.004 56.4152 233.788C54.7727 220.775 49.7105 183.38 49.6836 172.388C49.6836 172.029 49.6836 171.705 49.6836 171.418C49.6836 171.382 49.6836 171.355 49.6836 171.337C49.9529 163.982 52.6186 130.79 55.3113 120.094C57.25 112.469 74.9138 116.915 74.9138 116.915C74.9138 116.915 71.1441 149.676 69.1246 158.594C66.432 170.259 67.9668 172.711 67.9668 172.711Z" fill="#1B1B19"/>
<path d="M57.8962 172.199C57.7347 172.226 55.4459 172.603 52.834 172.603C51.8108 172.603 50.7068 172.55 49.6836 172.388C49.6836 172.029 49.6836 171.705 49.6836 171.418C53.1841 172.011 57.7077 171.283 57.7616 171.256C58.0039 171.229 58.2463 171.391 58.3001 171.66C58.327 171.93 58.1655 172.172 57.8962 172.199Z" fill="#42413B"/>
<path d="M68.1285 235.539L56.8193 237.075C56.7834 236.86 56.7565 236.653 56.7385 236.455L68.1285 234.893C68.1285 235.108 68.1285 235.324 68.1285 235.539Z" fill="#42413B"/>
<path d="M72.1944 127.072C72.0059 127.045 71.8444 127.18 71.8175 127.368C71.7636 127.691 66.4321 160.129 64.3319 168.131C64.3139 168.185 64.3049 168.23 64.3049 168.266C64.3319 168.4 66.2975 180.147 66.0013 188.284C65.732 196.124 65.5974 232.333 65.5705 235.378C65.8128 235.378 66.0013 235.378 66.2437 235.378C66.2437 232.145 66.4321 196.124 66.7014 188.31C66.9707 180.443 65.1666 169.263 65.005 168.239C67.1322 160.075 72.4368 127.799 72.4906 127.476C72.5176 127.287 72.3829 127.099 72.1944 127.072Z" fill="#42413B"/>
<path d="M72.0867 131.679C72.5714 131.805 73.0651 131.921 73.5677 132.029C79.9224 133.484 86.6002 134.077 91.2585 132.972C93.5742 132.406 95.0551 129.577 95.9706 126.425C96.2399 125.563 96.59 124.701 96.6438 123.812C97.2093 115.056 95.0551 111.338 95.0551 111.338L60.6698 107.512C60.6698 107.512 59.5389 109.613 58.2734 112.362C57.3579 114.328 56.3616 116.672 55.6884 118.747C55.6884 118.765 55.6884 118.774 55.6884 118.774C55.3114 120.013 55.0152 121.198 54.9345 122.168C54.6652 125.294 62.824 129.362 72.0867 131.679Z" fill="#9C80D7"/>
<path d="M91.9047 166.057C91.0161 175.19 92.2009 178.692 92.2009 178.692C92.2009 178.692 94.2474 187.583 93.6819 203.182C93.2511 214.794 92.7125 228.023 92.4702 234.058C92.4522 234.291 92.4433 234.507 92.4433 234.704C92.3625 236.402 92.3356 237.371 92.3356 237.371L81.5649 238.126C81.5649 238.126 81.4034 237.21 81.1072 235.566C81.0713 235.369 81.0264 235.153 80.9725 234.92C78.953 223.766 72.2752 186.64 71.7905 177.13C71.7546 176.609 71.7277 176.034 71.7098 175.405C71.6918 175.1 71.6828 174.786 71.6828 174.462C71.3866 163.928 72.006 143.291 73.5677 132.029C73.9447 129.335 74.3486 127.18 74.7525 125.832C74.914 125.267 75.1833 124.809 75.5064 124.378C79.7608 119.07 96.6438 123.812 96.6438 123.812C96.6438 123.812 96.5092 124.755 96.2938 126.398C95.2436 134.427 92.6587 158.486 91.9047 166.057Z" fill="#1B1B19"/>
<path d="M79.8685 175.244C79.707 175.271 77.4182 175.621 74.8063 175.621C73.7831 175.621 72.733 175.567 71.7098 175.405C71.6918 175.1 71.6829 174.786 71.6829 174.462C75.1833 175.028 79.6801 174.301 79.7339 174.301C79.9763 174.247 80.2186 174.435 80.2724 174.678C80.2994 174.947 80.1378 175.19 79.8685 175.244Z" fill="#42413B"/>
<path d="M92.4701 234.058C92.4521 234.291 92.4431 234.507 92.4431 234.704L91.7431 234.758L91.1507 234.812L81.107 235.566C81.0711 235.369 81.0263 235.153 80.9724 234.92L91.043 234.165L91.77 234.112L92.4701 234.058Z" fill="#42413B"/>
<path d="M92.901 134.023C93.0625 134.023 93.1972 133.915 93.2241 133.753C93.278 133.592 93.1702 133.403 92.9818 133.349C92.9548 133.349 91.0161 132.891 89.0235 131.248C86.3847 129.065 84.9038 125.967 84.6614 121.98C84.6614 121.791 84.4999 121.656 84.3114 121.656C84.1229 121.683 83.9883 121.845 83.9883 122.034C84.3114 127.233 86.6809 130.224 88.6196 131.814C90.7199 133.511 92.7394 133.996 92.8202 134.023C92.8561 134.023 92.883 134.023 92.901 134.023Z" fill="#42413B"/>
<path d="M91.4737 234.004C91.4737 234.255 91.4737 234.399 91.4737 234.435C91.4737 234.507 91.4557 234.57 91.4198 234.623H90.8274C90.7915 234.57 90.7736 234.507 90.7736 234.435C90.7736 234.408 90.7736 234.246 90.7736 233.977C90.7466 230.313 90.4774 205.095 90.612 197.093C90.7197 189.738 88.8887 175.378 88.8887 175.217C88.8708 175.199 88.8708 175.172 88.8887 175.136C90.1273 161.396 93.5739 126.129 93.6009 125.779C93.6278 125.59 93.7894 125.455 93.9778 125.482C94.1933 125.482 94.3279 125.671 94.301 125.859C94.274 126.21 90.8274 161.396 89.5619 175.163C89.6696 175.998 91.4198 189.873 91.3121 197.12C91.1775 205.122 91.4198 230.367 91.4737 234.004Z" fill="#42413B"/>
<path d="M72.1406 131.975C72.2752 131.975 72.3829 131.921 72.4637 131.787C72.5444 131.625 72.4906 131.409 72.3021 131.329C72.2483 131.302 68.5862 129.308 67.8323 124.943C67.8054 124.755 67.6438 124.647 67.4284 124.674C67.2399 124.701 67.1322 124.889 67.1591 125.078C67.94 129.766 71.8174 131.84 71.979 131.948C72.0328 131.966 72.0867 131.975 72.1406 131.975Z" fill="#42413B"/>
<path d="M53.5073 123.408C54.2613 126.722 63.7394 130.224 73.5946 131.436C82.9112 132.568 92.0932 131.975 96.8861 130.79C100.333 129.901 99.848 125.482 99.6865 120.714C99.6865 120.336 99.6775 119.95 99.6595 119.555C99.6595 119.393 99.6595 119.223 99.6595 119.043C99.6595 117.75 99.7134 116.484 99.9288 115.271C100.063 114.355 100.171 113.493 100.198 112.712C100.216 112.568 100.225 112.433 100.225 112.308C100.243 112.146 100.252 111.984 100.252 111.823C100.279 109.694 100.01 108.132 99.8211 107.323C99.7134 106.919 99.6326 106.704 99.6326 106.704C99.0672 104.117 98.5017 101.962 97.9632 100.13C95.5398 91.805 93.7895 90.1615 94.6781 84.2074C94.714 84.0098 94.7499 83.8032 94.7858 83.5877C94.8038 83.4261 94.8307 83.2644 94.8666 83.1027C95.109 81.8634 95.4052 80.4625 95.7821 78.9537C95.8539 78.7382 95.9168 78.5137 95.9706 78.2802C96.3745 76.8253 96.8053 75.2896 97.3169 73.7001C97.3708 73.5384 97.4246 73.3768 97.4785 73.2151C97.8016 72.2272 98.1427 71.2304 98.5017 70.2246C98.5735 70.027 98.6453 69.8204 98.7171 69.6049C98.8428 69.2636 98.9774 68.9224 99.121 68.5811C99.1749 68.4195 99.2377 68.2488 99.3095 68.0692C99.6865 67.0724 100.117 66.0486 100.521 65.0787C101.544 62.7078 102.245 60.2292 102.406 57.9391C102.406 57.7775 102.415 57.6158 102.433 57.4542C102.541 54.0864 101.41 51.1767 98.2863 49.641C98.1427 49.5692 97.9901 49.4973 97.8285 49.4255C97.5952 49.3357 97.3528 49.2459 97.1015 49.1561C92.7663 47.7012 86.3578 45.4112 86.3578 45.4112L74.0523 46.8391C73.7023 46.893 73.2984 47.1624 72.9214 47.4857C72.7958 47.5935 72.6701 47.6922 72.5445 47.7821C72.1944 48.0784 71.8444 48.3209 71.5751 48.3748C70.875 48.4646 70.2377 48.5634 69.6633 48.6711C69.4838 48.7071 69.3132 48.743 69.1517 48.7789C66.5667 49.3177 65.0588 50.0182 64.0895 51.042C62.6354 52.5777 62.5008 54.8677 61.8277 58.4241C61.4507 60.3369 60.9121 62.2229 60.3198 64.001C59.5658 66.2641 58.758 68.3925 58.1926 70.2515C58.1567 70.3772 58.1208 70.503 58.0849 70.6287C57.5732 72.353 57.304 73.8348 57.5194 75.0202C57.5373 75.128 57.5643 75.2447 57.6002 75.3705C57.8156 76.1248 58.1387 76.8792 58.4888 77.5797C58.5785 77.7234 58.6683 77.876 58.758 78.0377C59.6735 79.6542 60.8044 80.9474 61.343 81.5132C61.5045 81.7018 61.6122 81.8095 61.6122 81.8095C61.6122 81.8095 61.6122 81.8185 61.6122 81.8365C61.5943 81.9622 61.5763 82.0879 61.5584 82.2137C61.5045 82.6986 61.4238 83.2644 61.316 83.911C60.6967 87.7098 59.7274 91.6433 58.8119 94.8494C58.758 95.0649 58.7042 95.2804 58.6503 95.496C57.9771 97.786 57.3848 99.672 56.9809 100.75C56.9091 101.001 56.8372 101.208 56.7654 101.369C56.7116 101.549 56.6667 101.675 56.6308 101.746C56.2538 103.336 55.9038 104.899 55.5807 106.407C55.1768 108.239 54.7998 110.018 54.5036 111.715C54.4677 111.895 54.4318 112.083 54.3959 112.281C54.2882 112.873 54.1895 113.457 54.0997 114.032C53.3996 118.235 53.1034 121.63 53.5073 123.408Z" fill="#BFA6FA"/>
<path d="M72.5444 47.7821C73.0022 48.8058 73.6215 49.7757 74.4293 50.584C78.3606 54.6792 84.9845 55.676 90.2891 54.275C93.3318 53.4668 96.0783 51.8503 98.2863 49.641C98.1427 49.5692 97.9901 49.4973 97.8285 49.4255C97.4695 49.7668 97.1015 50.0991 96.7245 50.4224C92.524 53.8978 86.7886 55.1641 81.4841 53.8709C78.0375 53.0357 74.3485 50.7457 72.9214 47.4857C72.7957 47.5935 72.6701 47.6923 72.5444 47.7821Z" fill="#9C80D7"/>
<path d="M58.4888 77.5797C58.5785 77.7234 58.6683 77.8761 58.758 78.0377C60.6429 77.6875 62.447 76.96 64.0895 75.8824C69.8249 72.1913 72.2483 65.4828 71.9521 58.8551C71.7905 55.4066 71.0097 51.9042 69.6633 48.6981C69.6633 48.6981 69.6633 48.6891 69.6633 48.6711C69.4838 48.7071 69.3133 48.743 69.1517 48.7789C69.3671 49.2639 69.5646 49.7578 69.7441 50.2607C71.9252 56.4034 72.4098 63.7047 69.2594 69.6049C67.0784 73.6462 63.0124 76.8253 58.4888 77.5797Z" fill="#9C80D7"/>
<path d="M58.6504 95.496C59.7275 94.9571 60.7776 94.3105 61.72 93.5562C68.8556 87.8715 71.0366 77.876 78.7107 72.7302C82.5612 70.1437 87.5157 69.3894 91.9586 70.7634C93.9512 71.3831 95.7553 72.3799 97.317 73.7001C97.3709 73.5384 97.4247 73.3768 97.4786 73.2151C95.7822 71.8141 93.8166 70.7634 91.7163 70.1707C87.5157 69.0122 82.8574 69.6319 79.1146 71.868C75.3718 74.1311 72.733 77.7683 70.4173 81.4054C67.8593 85.3928 65.5167 89.6766 61.8816 92.8018C60.9392 93.5831 59.9159 94.2836 58.812 94.8494C58.7581 95.0649 58.7042 95.2804 58.6504 95.496Z" fill="#9C80D7"/>
<path d="M80.7032 100.238C84.4729 107.323 92.2816 111.904 100.225 112.308C100.243 112.146 100.252 111.984 100.252 111.823C96.2398 111.634 92.3624 110.368 88.9696 108.239C82.5342 104.198 75.641 94.6608 81.9687 87.629C84.6075 84.6923 88.5388 83.2644 92.4432 83.3722C93.233 83.3901 94.0139 83.462 94.7858 83.5877C94.8037 83.4261 94.8307 83.2644 94.8666 83.1028C93.3317 82.8603 91.7969 82.8064 90.2352 82.968C86.5193 83.3991 82.8842 85.312 80.7301 88.4103C78.199 92.0205 78.6837 96.4928 80.7032 100.238Z" fill="#9C80D7"/>
<path d="M56.7654 101.369C58.3541 100.83 60.0235 100.534 61.7199 100.507C69.9864 100.319 76.9873 105.788 83.2073 110.556C88.1349 114.328 93.5471 118.262 99.6595 119.555C99.6595 119.393 99.6595 119.223 99.6595 119.043C96.6437 118.397 93.7626 117.103 91.0968 115.514C83.9343 111.257 78.0643 104.899 70.2287 101.72C66.1358 100.049 61.2352 99.4834 56.9808 100.75C56.909 101.001 56.8372 101.208 56.7654 101.369Z" fill="#9C80D7"/>
<path d="M54.3958 112.281C55.4549 111.85 56.5409 111.508 57.6539 111.257C62.5276 110.206 67.6975 110.961 71.9788 113.52C75.9909 115.918 79.1144 119.663 80.6761 124.054C80.7838 124.351 81.2685 124.216 81.1608 123.92C80.2453 121.387 78.8451 119.043 77.0141 117.022C73.756 113.439 69.3131 111.041 64.4932 110.449C61.1005 110.045 57.6539 110.503 54.5035 111.715C54.4676 111.895 54.4317 112.083 54.3958 112.281Z" fill="#9C80D7"/>
<path d="M79.6799 64.8901C81.1071 65.9947 82.9919 66.5335 84.6883 67.0454C86.6539 67.6112 88.6196 68.0153 90.6391 68.2848C93.4394 68.6619 96.2937 68.7697 99.121 68.5811C99.1748 68.4195 99.2376 68.2488 99.3095 68.0692C96.159 68.3117 93.0086 68.177 89.9121 67.692C88.108 67.4226 86.3039 67.0185 84.5537 66.4797C83.0188 66.0217 81.3225 65.5367 80.0031 64.5399C79.1683 63.9202 78.6029 63.0042 78.9798 61.9265C79.303 60.9835 80.1646 60.31 80.9993 59.825C82.5342 58.936 84.3113 58.3971 86.0077 57.9661C91.3123 56.619 97.0476 56.592 102.406 57.9391C102.406 57.7775 102.415 57.6158 102.433 57.4542C99.6595 56.7806 96.8322 56.4573 94.0049 56.4843C90.1544 56.5112 86.2231 57.1309 82.6149 58.5318C81.1071 59.1246 79.3299 59.9597 78.6298 61.5224C78.0105 62.8425 78.576 64.0549 79.6799 64.8901Z" fill="#9C80D7"/>
<path d="M98.9863 58.4779C98.8517 55.3527 98.0977 52.2813 97.0476 49.3447C98.017 49.5602 98.9594 49.9913 99.7941 50.6379C106.068 55.5952 114.388 61.4146 118.347 63.2736C119.262 62.627 121.12 61.0105 124.028 57.2117C126.532 53.9248 128.39 50.8265 128.417 50.7995C130.329 47.6473 134.422 46.6236 137.572 48.5095C140.723 50.4223 141.746 54.5175 139.834 57.6697C139.726 57.8583 136.899 62.5462 133.237 67.0724C130.921 69.9013 128.713 72.1374 126.667 73.7001C125.132 74.8855 123.651 75.6938 122.17 76.2326C120.932 76.6637 119.666 76.9061 118.427 76.9061C117.431 76.9061 116.462 76.7445 115.519 76.4481C113.365 75.7746 109.434 74.1311 100.306 67.6651C99.3364 66.9646 98.3939 66.2911 97.5053 65.6445C98.744 63.543 99.1209 60.9566 98.9863 58.4779Z" fill="#BFA6FA"/>
<path d="M99.498 67.4765C99.4262 67.4765 99.3544 67.4496 99.2826 67.3957L93.1164 62.8156C92.9548 62.7078 92.9279 62.4653 93.0625 62.3037C93.1702 62.142 93.4126 62.0881 93.5741 62.2228L99.7403 66.803C99.9019 66.9107 99.9288 67.1532 99.8211 67.3148C99.7403 67.4226 99.6326 67.4765 99.498 67.4765Z" fill="#0D0C0C"/>
<path d="M73.3522 45.2765C73.3522 45.2765 71.5211 46.7313 71.6827 49.0753C71.6827 49.0753 74.3215 50.4493 78.3874 49.7219C82.4803 48.9944 86.6 45.6267 86.6 45.6267C86.6 45.6267 86.627 43.9563 84.6613 42.4745C84.6613 42.4745 78.549 46.3811 73.3522 45.2765Z" fill="#997CD3"/>
<path d="M61.6123 82.2945H62.1239C62.1239 82.2765 62.1329 82.2676 62.1509 82.2676C62.1509 82.1867 62.1239 82.079 62.0701 82.0251C59.9698 80.2469 57.5733 77.2833 58.0849 73.2421C58.5427 69.551 63.2279 56.6998 63.2818 56.5651C63.3087 56.4304 63.2548 56.2957 63.1202 56.2418C63.0125 56.2148 62.8509 56.2687 62.824 56.4034C62.6355 56.9423 58.058 69.4433 57.6003 73.1612C57.0887 77.3641 59.4582 80.4086 61.6123 82.2945Z" fill="#0D0C0C"/>
<path d="M61.5853 82.0251C61.5673 82.1328 61.5494 82.2496 61.5314 82.3753C63.6855 82.8603 66.432 82.9141 69.6902 82.2945C76.0987 81.0282 81.3225 83.9918 81.3763 84.0188C81.4122 84.0547 81.4571 84.0726 81.511 84.0726C81.6456 84.0726 81.7533 83.9918 81.8071 83.911C81.8879 83.7493 81.8341 83.5608 81.6725 83.453C81.4571 83.3452 76.2064 80.3547 69.5555 81.6479C66.1897 82.3214 63.3893 82.2137 61.2891 81.6748C61.4775 81.8634 61.5853 81.9712 61.5853 81.9712C61.5853 81.9891 61.5853 82.0071 61.5853 82.0251Z" fill="#0D0C0C"/>
<path d="M73.8368 59.394C77.7681 59.394 85.7384 53.7901 86.0885 53.5476C86.2231 53.4398 86.2769 53.2512 86.1692 53.0896C86.0615 52.9549 85.8461 52.9279 85.7115 53.0357C85.6307 53.0896 77.5527 58.7474 73.8368 58.7474C70.2825 58.7474 69.5017 54.8677 69.5017 54.8408C69.4478 54.6522 69.2862 54.5444 69.1247 54.5714C68.9362 54.6253 68.8285 54.7869 68.8554 54.9486C68.8823 55.0025 69.7709 59.394 73.8368 59.394Z" fill="#0D0C0C"/>
<path d="M70.0941 112.793C73.2445 112.793 76.718 112.146 80.38 110.88C85.8461 108.967 89.9121 106.273 89.9659 106.246C90.1275 106.111 90.1813 105.896 90.0736 105.707C89.9659 105.545 89.7236 105.491 89.562 105.599C89.5082 105.626 85.4961 108.293 80.1108 110.152C75.1832 111.877 68.0476 113.305 62.0699 110.26C61.8814 110.152 61.666 110.233 61.5583 110.422C61.4775 110.61 61.5314 110.826 61.7199 110.934C64.1702 112.173 66.9975 112.793 70.0941 112.793Z" fill="#0D0C0C"/>
<path d="M83.2343 124.297C92.3624 124.297 99.6326 123.004 99.7134 123.004C99.9288 122.95 100.063 122.761 100.01 122.546C99.9827 122.357 99.7942 122.222 99.5788 122.249C99.498 122.276 92.0932 123.569 82.8843 123.542C74.4024 123.489 62.5816 122.303 54.5305 116.78C54.369 116.672 54.1266 116.699 54.0189 116.888C53.8843 117.049 53.9382 117.292 54.0997 117.4C62.3123 123.031 74.2947 124.243 82.8843 124.27C83.0099 124.288 83.1266 124.297 83.2343 124.297Z" fill="#9C80D7"/>
<path d="M96.0513 131.194C96.2129 131.194 96.3744 131.086 96.4013 130.924C97.1014 127.907 97.1284 123.246 97.1284 123.057C97.1284 122.842 96.9668 122.68 96.7514 122.68C96.536 122.68 96.3744 122.842 96.3744 123.057C96.3744 123.084 96.3475 127.826 95.6743 130.736C95.6205 130.951 95.7551 131.14 95.9436 131.194C95.9795 131.194 96.0154 131.194 96.0513 131.194Z" fill="#9C80D7"/>
<path d="M90.693 131.679C90.8546 131.679 91.0162 131.571 91.0431 131.382C91.7432 128.365 91.6893 124.081 91.6893 123.893C91.6893 123.704 91.5008 123.515 91.3123 123.542C91.0969 123.542 90.9354 123.704 90.9354 123.92C90.9354 123.947 90.9892 128.284 90.3161 131.221C90.2622 131.436 90.3968 131.625 90.6123 131.679C90.6302 131.679 90.6571 131.679 90.693 131.679Z" fill="#9C80D7"/>
<path d="M83.5573 132.056C83.7189 132.056 83.8804 131.948 83.9073 131.787C84.6074 128.769 84.5536 124.431 84.5536 124.27C84.5536 124.054 84.3651 123.893 84.1766 123.893C83.9612 123.893 83.7996 124.054 83.7996 124.27C83.7996 124.324 83.8535 128.688 83.1803 131.598C83.1265 131.814 83.2611 132.002 83.4765 132.056C83.4945 132.056 83.5214 132.056 83.5573 132.056Z" fill="#9C80D7"/>
<path d="M76.7989 131.679C76.9873 131.679 77.1489 131.517 77.1758 131.329C77.3643 128.23 77.8759 124 77.8759 123.947C77.9029 123.758 77.7413 123.569 77.5528 123.542C77.3374 123.515 77.1489 123.65 77.122 123.866C77.122 123.893 76.6104 128.149 76.4219 131.275C76.395 131.49 76.5565 131.679 76.7719 131.679C76.7719 131.679 76.7809 131.679 76.7989 131.679Z" fill="#9C80D7"/>
<path d="M70.1749 130.924C70.1749 130.924 70.1839 130.924 70.2018 130.924C70.4172 130.924 70.5519 130.736 70.5519 130.52C70.3634 127.934 71.252 123.165 71.252 123.111C71.2789 122.923 71.1443 122.707 70.9558 122.68C70.7404 122.653 70.5519 122.788 70.498 122.977C70.4711 123.192 69.6094 127.907 69.7979 130.574C69.7979 130.79 69.9864 130.924 70.1749 130.924Z" fill="#9C80D7"/>
<path d="M62.8508 129.281C63.0663 129.281 63.2278 129.119 63.2278 128.904C63.2278 126.102 63.9279 121.468 63.9279 121.441C63.9548 121.225 63.8202 121.037 63.6048 121.01C63.4163 120.983 63.2009 121.118 63.174 121.333C63.147 121.522 62.4739 126.048 62.4739 128.904C62.4739 129.119 62.6354 129.281 62.8508 129.281Z" fill="#9C80D7"/>
<path d="M56.6577 126.641C56.8731 126.641 57.0347 126.479 57.0347 126.264C57.0616 123.273 57.9502 119.474 57.9502 119.447C58.0041 119.232 57.8964 119.043 57.6809 118.989C57.4925 118.935 57.277 119.07 57.2232 119.259C57.1963 119.42 56.3077 123.165 56.2808 126.264C56.2808 126.479 56.4692 126.641 56.6577 126.641Z" fill="#9C80D7"/>
<path d="M112.477 77.3911C111.642 78.7651 111.642 80.1661 111.857 81.7018C111.911 81.9981 111.426 82.0251 111.399 81.7287C111.157 80.1391 111.184 78.6035 112.046 77.1756C112.207 76.9061 112.638 77.1217 112.477 77.3911Z" fill="#6B2D18"/>
<path d="M112.099 77.7683C111.238 78.0646 110.484 78.6304 109.999 79.4387C109.865 79.7081 109.434 79.4926 109.595 79.2501C110.107 78.3071 110.969 77.6605 111.965 77.3103C112.234 77.2025 112.396 77.6605 112.099 77.7683Z" fill="#6B2D18"/>
<path d="M144.762 43.1481C144.762 43.1481 146.754 44.4413 147.131 47.7282C147.508 51.0151 147.643 52.2005 146.162 53.386C144.896 54.3828 143.146 53.359 142.607 53.0088C142.5 52.9279 142.446 52.8741 142.446 52.8741C142.446 52.8741 142.365 53.1435 142.204 53.5207C141.692 54.6792 140.292 57.0231 137.464 56.6728C135.337 56.4304 133.722 55.1911 132.698 54.1403C131.864 53.3051 131.594 52.0389 131.971 50.9342C132.672 48.725 134.206 45.0071 136.63 43.7408C140.184 41.8818 140.642 41.9626 141.988 41.9896C143.361 42.0165 144.762 43.1481 144.762 43.1481Z" fill="#E8A36F"/>
<path d="M142.581 48.0515C141.611 48.267 140.857 48.0245 140.83 48.0245C140.669 47.9706 140.588 47.782 140.615 47.6473C140.669 47.4857 140.857 47.3779 141.019 47.4318C141.073 47.4587 142.473 47.8898 143.765 46.8391C143.9 46.7313 144.088 46.7583 144.196 46.893C144.304 47.0007 144.277 47.2163 144.142 47.2971C143.631 47.7282 143.065 47.9437 142.581 48.0515Z" fill="#B05935"/>
<path d="M143.065 50.2607C142.096 50.4762 141.342 50.2337 141.288 50.2337C141.127 50.1799 141.046 49.9913 141.1 49.8296C141.153 49.6949 141.315 49.5871 141.477 49.641C141.53 49.668 142.931 50.099 144.25 49.0483C144.385 48.9405 144.573 48.9675 144.681 49.1022C144.789 49.21 144.762 49.3986 144.627 49.5063C144.088 49.9374 143.55 50.1529 143.065 50.2607Z" fill="#B05935"/>
<path d="M144.385 52.5238C142.877 52.8471 141.746 52.0927 141.692 52.0658C141.557 51.985 141.504 51.7964 141.611 51.6617C141.692 51.5 141.881 51.4731 142.015 51.5539C142.069 51.6078 143.308 52.3891 144.842 51.7425C145.004 51.6886 145.192 51.7425 145.246 51.9042C145.3 52.0658 145.246 52.2275 145.085 52.3083C144.851 52.3981 144.618 52.4699 144.385 52.5238Z" fill="#B05935"/>
<path d="M142.607 53.0088C142.5 52.9279 142.446 52.8741 142.446 52.8741C142.446 52.8741 142.365 53.1435 142.204 53.5207C140.884 51.1498 140.399 47.8359 140.373 47.6473C140.373 47.4857 140.48 47.351 140.642 47.324C140.803 47.2971 140.965 47.4049 140.992 47.5665C140.992 47.6204 141.423 50.7457 142.607 53.0088Z" fill="#B05935"/>
<path d="M139.969 49.8566C138.569 50.1529 136.576 47.4857 136.172 46.893C136.064 46.7583 136.118 46.5697 136.253 46.4888C136.387 46.3811 136.576 46.408 136.657 46.5427C137.626 47.9168 139.296 49.641 139.996 49.21C140.319 49.0214 140.4 48.5903 140.4 48.267C140.453 47.1624 139.726 45.5189 138.945 44.8993C138.811 44.8185 138.784 44.6299 138.865 44.4952C138.972 44.3604 139.161 44.3335 139.296 44.4413C140.265 45.1687 141.073 46.9738 141.019 48.2939C140.965 48.9675 140.75 49.4524 140.319 49.7219C140.211 49.7937 140.094 49.8386 139.969 49.8566Z" fill="#B05935"/>
<path d="M135.822 54.3559C135.687 54.3828 135.526 54.302 135.472 54.1403C135.418 53.9787 135.526 53.817 135.687 53.7631C135.795 53.7362 138.542 52.9549 139.242 49.7488C139.269 49.5872 139.43 49.4794 139.592 49.5063C139.753 49.5602 139.861 49.7219 139.834 49.8835C139.053 53.4398 135.984 54.3289 135.849 54.3559C135.849 54.3559 135.84 54.3559 135.822 54.3559Z" fill="#B05935"/>
<path d="M137.626 48.4287C137.608 48.4466 137.581 48.4466 137.545 48.4287L135.849 48.1862C135.687 48.1592 135.579 48.0245 135.606 47.8629C135.633 47.7012 135.768 47.5665 135.93 47.5935L137.626 47.8359C137.787 47.8629 137.895 48.0245 137.868 48.1862C137.868 48.3209 137.761 48.4017 137.626 48.4287Z" fill="#6B2D18"/>
<path d="M86.0076 106.677L132.86 125.428L146.081 75.2088L112.826 61.8996L86.0076 106.677Z" fill="#B09B4A"/>
<path d="M135.041 126.29L92.0662 109.102L112.827 61.8996L117.135 63.6238L117.862 63.9202L142.096 73.6192L142.85 73.9156L146.081 75.2088L135.041 126.29Z" fill="#FCDE69"/>
<path d="M133.479 119.339L98.8787 105.464L117.135 63.6238L117.862 63.9202L99.9288 105.033L132.887 118.262L142.096 73.6192L142.85 73.9156L133.479 119.339Z" fill="#ECB46B"/>
<path d="M120.124 81.3785C122.52 82.3753 123.732 84.5037 122.547 87.3865C121.362 90.2154 118.966 90.835 116.569 89.8382C114.173 88.8413 112.907 86.686 114.092 83.8571C115.304 80.9743 117.7 80.3547 120.124 81.3785ZM117.512 85.2581C117.162 86.0663 117.269 86.5782 117.808 86.7938C118.347 87.0362 118.831 86.7668 119.154 85.9586C119.504 85.1503 119.343 84.6115 118.804 84.369C118.293 84.1535 117.835 84.4498 117.512 85.2581ZM128.175 85.0156L133.156 87.0901L117.431 100.13L112.477 98.0285L128.175 85.0156ZM129.036 95.2804C131.46 96.3042 132.672 98.4326 131.46 101.288C130.275 104.144 127.906 104.791 125.509 103.767C123.113 102.77 121.847 100.642 123.059 97.7591C124.243 94.9032 126.667 94.2836 129.036 95.2804ZM126.425 99.187C126.101 99.9953 126.209 100.507 126.748 100.75C127.259 100.965 127.744 100.696 128.094 99.8875C128.417 99.0792 128.282 98.5135 127.771 98.2979C127.232 98.0824 126.775 98.3787 126.425 99.187Z" fill="#ECB46B"/>
<path d="M137.087 74.4006C136.764 75.2088 137.168 76.1248 137.976 76.4481C138.784 76.7714 139.699 76.3943 140.022 75.586C140.372 74.7508 139.969 73.8348 139.161 73.5115C138.353 73.1882 137.437 73.5923 137.087 74.4006Z" fill="#131E07"/>
<path d="M122.09 68.3925C121.766 69.2008 122.143 70.1168 122.951 70.4401C123.786 70.7634 124.701 70.3593 125.025 69.551C125.348 68.7428 124.944 67.8268 124.136 67.5035C123.328 67.1802 122.413 67.5843 122.09 68.3925Z" fill="#131E07"/>
<path d="M104.668 115.271L154.482 123.381L156.448 71.4639L121.093 65.7253L104.668 115.271Z" fill="#559065"/>
<path d="M156.771 123.758L111.103 116.322L121.093 65.7253L125.671 66.4797L126.451 66.5874L152.22 70.7903L153.001 70.9251L156.448 71.4639L156.771 123.758Z" fill="#71C587"/>
<path d="M145.3 94.8224C144.681 92.9904 143.011 91.9127 141.261 91.1314C139.242 90.2423 137.114 89.7574 136.307 89.0299C136.064 88.8144 135.957 88.5989 135.984 88.3025C136.064 87.7098 136.684 87.2518 138.299 87.4404C138.407 87.4404 138.524 87.4494 138.649 87.4673C140.184 87.7098 141.773 88.3295 143.388 89.4071C143.514 89.4969 143.64 89.5778 143.765 89.6496L144.358 88.6258L146.377 85.285C145.462 84.5846 144.331 83.9918 143.146 83.5338C142.473 83.2913 141.773 83.0758 141.046 82.8872L141.315 81.136L141.477 79.9775L137.626 79.4117L137.195 82.4023C132.645 82.3753 130.033 84.6384 129.575 87.7098C129.44 88.7605 129.548 89.6496 129.817 90.404C130.194 91.3739 130.867 92.1283 131.702 92.7479C133.129 93.7986 134.987 94.4183 136.495 94.9841C138.03 95.5499 139.161 96.0348 139.026 96.8431C138.945 97.4897 138.245 97.786 136.414 97.5166C135.66 97.4088 134.853 97.1933 134.099 96.9239C132.725 96.412 131.406 95.7115 130.356 94.8494L127.609 99.2409C128.148 99.6989 128.821 100.13 129.602 100.534C130.948 101.235 132.618 101.827 134.341 102.178L134.099 103.821L133.91 105.06L137.761 105.626L138.218 102.582C142.527 102.474 145.031 100.211 145.462 97.2741C145.596 96.3312 145.516 95.5229 145.3 94.8224Z" fill="#559065"/>
<path d="M153.728 117.292L116.973 111.284L125.671 66.4797L126.452 66.5874L117.889 110.637L152.947 116.376L152.22 70.7904L153.001 70.9251L153.728 117.292Z" fill="#559065"/>
<path d="M149.07 74.4814C148.181 74.4814 147.481 73.7539 147.481 72.8918C147.481 72.0297 148.181 71.3022 149.07 71.3022C149.932 71.3022 150.659 72.0297 150.659 72.8918C150.659 73.7539 149.932 74.4814 149.07 74.4814Z" fill="#0D0C0C"/>
<path d="M133.102 71.868C132.241 71.868 131.514 71.1675 131.514 70.3054C131.514 69.4163 132.241 68.7158 133.102 68.7158C133.991 68.7158 134.691 69.4163 134.691 70.3054C134.691 71.1675 133.991 71.868 133.102 71.868Z" fill="#0D0C0C"/>
<path d="M136.307 68.2578C137.303 65.4559 138.865 60.8219 139.753 56.3226C140.211 55.8646 140.696 55.4874 141.126 55.0025C140.319 59.9597 138.595 65.2403 137.438 68.4195C137.061 68.3656 136.684 68.3117 136.307 68.2578Z" fill="#0D0C0C"/>
<path d="M115.735 63.0311C117.108 60.9297 119.935 56.6998 123.274 52.6855C129.494 45.1687 134.449 41.9357 137.976 43.0672C137.411 43.3905 136.818 43.66 136.28 43.9833C130.356 44.3066 121.066 56.8076 116.785 63.4622C116.426 63.3365 116.076 63.1928 115.735 63.0311Z" fill="#131E07"/>
<path d="M121.766 65.4559C121.425 65.2763 121.084 65.1146 120.743 64.9709C122.843 60.6872 129.306 48.2401 134.691 45.4651C134.233 46.0847 133.883 46.7852 133.614 47.5126C128.956 51.4192 123.624 61.684 121.766 65.4559Z" fill="#0D0C0C"/>
<path d="M140.696 68.9044C141.046 64.7015 141.288 59.5287 140.938 55.1641C141.261 54.6971 141.593 54.2391 141.934 53.7901C142.186 55.9454 142.284 58.4869 142.231 61.4146C142.177 64.1357 141.988 66.8299 141.8 69.0391C141.423 68.9853 141.046 68.9583 140.696 68.9044Z" fill="#0D0C0C"/>
<path d="M140.049 45.2226C140.211 45.1687 140.373 45.1597 140.534 45.1956C140.669 44.8185 140.938 44.4682 141.288 44.2796C140.767 44.0282 140.238 43.9922 139.699 44.1718C137.438 44.8723 135.606 49.3986 134.099 57.9661C133.022 64.1357 132.537 70.1976 132.537 70.2515L133.668 70.3323C133.668 70.2785 134.152 64.2704 135.203 58.1546C137.034 47.6743 139.026 45.5459 140.049 45.2226Z" fill="#0D0C0C"/>
<path d="M148.962 68.9852C148.047 63.4891 147.077 58.0199 145.919 53.6284C145.596 53.7631 145.192 53.844 144.815 53.817C146.135 58.8551 147.158 64.9979 147.858 69.1738C148.1 70.6556 148.316 71.9488 148.504 72.9996L149.608 72.784C149.42 71.7333 149.204 70.467 148.962 68.9852Z" fill="#0D0C0C"/>
<path d="M138.73 45.2765C134.664 47.8898 131.514 61.9265 130.491 67.1263C130.114 67.0993 129.737 67.0724 129.36 66.9916C130.383 61.7379 133.614 47.2163 138.138 44.3335C138.676 43.9922 139.224 43.8126 139.78 43.7947C139.457 44.091 139.296 44.5221 139.296 45.007C139.116 45.0609 138.928 45.1507 138.73 45.2765Z" fill="#0D0C0C"/>
<path d="M144.869 53.7631C145.085 53.7631 145.273 53.7362 145.462 53.6823C145.731 55.227 145.937 56.9423 146.081 58.8282C146.458 63.1928 146.512 67.4765 146.485 69.9552C146.108 69.9013 145.731 69.8204 145.354 69.6857C145.381 67.2071 145.327 63.085 144.977 58.909C144.815 56.9872 144.6 55.2539 144.331 53.7092C144.51 53.7452 144.69 53.7631 144.869 53.7631Z" fill="#0D0C0C"/>
<path d="M128.05 256.456C128.05 256.594 105.669 256.663 78.0612 256.663C50.43 256.663 28.0496 256.594 28.0496 256.456C28.0496 256.386 50.43 256.317 78.0612 256.317C105.669 256.317 128.05 256.386 128.05 256.456Z" fill="#263238"/>
</svg>
